# xmcd CD database file
#
# Track frame offsets:
#	150
#	25350
#	38035
#	67877
#	89467
#	117300
#	131230
#	155705
#	175515
#	195612
#	211740
#	238882
#
# Disc length: 3534 seconds
#
# Revision: 1
# Processed by: cddbd v1.5.2PL0 Copyright (c) Steve Scherf et al.
# Submitted via: CDex 1.51
#
DISCID=a40dcc0c
DTITLE=Red Nativity - One Holy Night 聖誕夜
DYEAR=1997
DGENRE=New Age
TTITLE0=The Miracle Of Life 生命奇蹟 01
TTITLE1=Virgin Sunrise 期待的早晨 02
TTITLE2=Silent Grace 安息日 03
TTITLE3=Come Faithful Ones 信心 04
TTITLE4=Three Shaman 三位長者 05
TTITLE5=Serenity's Child 聖子 06
TTITLE6=Wakan Tanka's Prayer 祈求 07
TTITLE7=Young Rain Drummer 雨鼓手 08
TTITLE8=The Winds Of Salvation 風的救贖 09
TTITLE9=A Midnight Clear 無盡的夜 10
TTITLE10=Angelic Glory 聖境 11
TTITLE11=One Holy Night 永恆國度 12
EXTD=YEAR: 1997
EXTT0=
EXTT1=
EXTT2=
EXTT3=
EXTT4=
EXTT5=
EXTT6=
EXTT7=
EXTT8=
EXTT9=
EXTT10=
EXTT11=
PLAYORDER=
